<svg xmlns="http://www.w3.org/2000/svg" width="180" height="100" version="1.0"><g fill="none" stroke="#000" stroke-width="2"><path d="M130 77h25M91 67H60V12"/><path d="M92 87H40V32"/><path d="M90 57v40h20.476c11.268 0 19.994-9 20-20 0-11-8.732-20-20-20H90zm2.857 2.857h17.619c9.76 0 16.667 7.64 16.667 17.143S119.76 94.143 110 94.143H92.857V59.857z" stroke-width="0" fill="#000" stroke="none"/></g><g fill="none" stroke="#000" stroke-width="2"><path d="M130.131 22h25M91.131 12h-66M91.131 32h-66"/><g stroke-width="0" fill="#000" stroke="none"><path d="M84.381 39c-1.597 2.644-2.25 3-2.25 3h-3.656l2-2.438s5.656-7 5.656-17.562c0-10.563-5.656-17.563-5.656-17.563l-2-2.437h3.656c.781.938 1.422 1.656 2.219 3 1.873 3.1 4.781 9.027 4.781 17 0 7.95-2.896 13.88-4.75 17z"/><path d="M84.225 2l2 2.437s5.656 7 5.656 17.563c0 10.562-5.656 17.562-5.656 17.562l-2 2.438h17.156c2.408 0 7.69.024 13.625-2.406 5.936-2.43 12.537-7.343 17.688-16.875L131.38 22l1.313-.719C122.39 2.216 106.138 2.001 101.38 2.001H84.225zM90.1 5h11.281c4.684 0 18.287-.13 27.969 17-4.767 8.43-10.521 12.684-15.719 14.813-5.36 2.195-9.842 2.187-12.25 2.187h-11.25c1.874-3.108 4.75-9.05 4.75-17 0-7.973-2.908-13.9-4.781-17z"/></g></g><g font-size="16" font-family="DejaVu Sans"><text x="5.131" y="18">A</text><text x="5.131" y="38">B</text><text x="165.131" y="28">S</text><text x="165.131" y="83">C</text></g><path d="M62.631 12a2.5 2.5 0 11-5 0 2.5 2.5 0 115 0zM42.506 32a2.5 2.5 0 11-5 0 2.5 2.5 0 115 0z"/><g fill="none" stroke="#000" stroke-width="2"><path d="M25.131 12a2.5 2.5 0 11-5 0 2.5 2.5 0 115 0zM25.131 32a2.5 2.5 0 11-5 0 2.5 2.5 0 115 0zM160.131 22a2.5 2.5 0 11-5 0 2.5 2.5 0 115 0zM160.131 77a2.5 2.5 0 11-5 0 2.5 2.5 0 115 0z"/></g></svg>